<svg width="158" height="135" viewBox="0 0 158 135" fill="none" xmlns="http://www.w3.org/2000/svg">
<path d="M117.409 13.512L36.839 79.5575C34.3229 81.62 34.0238 85.2735 36.1709 87.7178C38.318 90.1621 42.0984 90.4716 44.6145 88.409L125.184 22.3635C127.701 20.301 128 16.6475 125.852 14.2032C123.705 11.7589 119.925 11.4494 117.409 13.512Z" fill="#69FEB6"/>
<path d="M112.715 43.6741L32.1446 109.72C29.6285 111.782 29.3294 115.436 31.4766 117.88C33.6237 120.324 37.404 120.634 39.9201 118.571L120.49 52.5257C123.006 50.4631 123.305 46.8096 121.158 44.3653C119.011 41.921 115.231 41.6115 112.715 43.6741Z" fill="#69FEB6"/>
<path d="M119.461 66.0707L72.6402 104.451C70.124 106.514 69.8249 110.168 71.9721 112.612C74.1192 115.056 77.8995 115.366 80.4156 113.303L127.237 74.9223C129.753 72.8598 130.052 69.2063 127.905 66.762C125.758 64.3177 121.978 64.0082 119.461 66.0707Z" fill="#69FEB6"/>
<path d="M80.1255 20.7448L33.3042 59.1256C30.7881 61.1881 30.489 64.8416 32.6361 67.2859C34.7833 69.7302 38.5636 70.0397 41.0797 67.9771L87.901 29.5964C90.4171 27.5339 90.7162 23.8804 88.5691 21.4361C86.4219 18.9918 82.6416 18.6823 80.1255 20.7448Z" fill="#69FEB6"/>
</svg>
